<svg width="31" height="52" viewBox="0 0 31 52" fill="none" xmlns="http://www.w3.org/2000/svg">
<path d="M4.4362 17.1504C4.30265 17.4617 4.23366 17.7969 4.2334 18.1356V27.8875V29.3897C4.2334 29.589 4.31253 29.78 4.45339 29.9209C4.59425 30.0617 4.7853 30.1409 4.98451 30.1409H8.4897C8.6889 30.1409 8.87995 30.0617 9.02081 29.9209C9.16167 29.78 9.24081 29.589 9.24081 29.3897V26.4094H21.7593V29.3897C21.7593 29.4884 21.7787 29.5861 21.8165 29.6772C21.8542 29.7683 21.9096 29.8511 21.9793 29.9209C22.0491 29.9906 22.1319 30.0459 22.223 30.0837C22.3141 30.1214 22.4118 30.1409 22.5104 30.1409H26.0156C26.2148 30.1409 26.4059 30.0617 26.5467 29.9209C26.6876 29.78 26.7667 29.589 26.7667 29.3897V25.988V18.1368C26.7672 17.7974 26.6986 17.4613 26.5652 17.1491L23.6609 10.3766C23.4679 9.92634 23.147 9.54259 22.738 9.2729C22.329 9.00321 21.8499 8.85943 21.36 8.85938H9.64015C9.1501 8.85953 8.67088 9.0035 8.26188 9.27342C7.85287 9.54335 7.53207 9.92736 7.33924 10.3779L4.4362 17.1504Z" fill="#007BFF"/>
<path d="M20.2666 15.5237L15.2 20.98C14.8834 21.3209 14.3541 21.3511 14.0009 21.0483L11.5999 18.9903" stroke="white" stroke-width="1.87778" stroke-linecap="round" stroke-linejoin="round"/>
<circle cx="15.5001" cy="39.2408" r="3.9" fill="#007BFF"/>
</svg>
