<svg width="24" height="24" viewBox="0 0 24 24" fill="none" xmlns="http://www.w3.org/2000/svg">
<path d="M11.9999 0L11.4888 1.71605L12.3406 1.88765L11.9999 0Z" fill="#FFCC00"/>
<path d="M11.9999 0L12.511 1.71605L11.6592 1.88765L11.9999 0Z" fill="#FFCC00"/>
<path d="M13.6203 1.18591L11.8421 1.22658L11.9433 2.09563L13.6203 1.18591Z" fill="#FFCC00"/>
<path d="M13.6204 1.18616L12.1581 2.20607L11.7328 1.44307L13.6204 1.18616Z" fill="#FFCC00"/>
<path d="M13.0011 3.10485L12.4132 1.41394L11.6239 1.77944L13.0011 3.10485Z" fill="#FFCC00"/>
<path d="M13.0009 3.10463L11.586 2.01892L12.175 1.37575L13.0009 3.10463Z" fill="#FFCC00"/>
<path d="M10.3804 1.18688L12.1586 1.22755L12.0574 2.09661L10.3804 1.18688Z" fill="#FFCC00"/>
<path d="M10.3799 1.18665L11.8422 2.20656L12.2674 1.44356L10.3799 1.18665Z" fill="#FFCC00"/>
<path d="M10.9994 3.10533L11.5873 1.41442L12.3766 1.77993L10.9994 3.10533Z" fill="#FFCC00"/>
<path d="M10.9996 3.10511L12.4145 2.0194L11.8255 1.37624L10.9996 3.10511Z" fill="#FFCC00"/>
<path d="M11.9999 20.5923L11.4888 22.3083L12.3406 22.4799L11.9999 20.5923Z" fill="#FFCC00"/>
<path d="M11.9999 20.5923L12.511 22.3083L11.6592 22.4799L11.9999 20.5923Z" fill="#FFCC00"/>
<path d="M13.6203 21.7787L11.8421 21.8194L11.9433 22.6884L13.6203 21.7787Z" fill="#FFCC00"/>
<path d="M13.6204 21.7789L12.1581 22.7988L11.7328 22.0358L13.6204 21.7789Z" fill="#FFCC00"/>
<path d="M13.0008 23.6976L12.4129 22.0067L11.6237 22.3722L13.0008 23.6976Z" fill="#FFCC00"/>
<path d="M13.0006 23.6969L11.5858 22.6112L12.1748 21.968L13.0006 23.6969Z" fill="#FFCC00"/>
<path d="M10.3799 21.7782L12.1581 21.8189L12.0569 22.6879L10.3799 21.7782Z" fill="#FFCC00"/>
<path d="M10.3796 21.7784L11.8419 22.7984L12.2672 22.0354L10.3796 21.7784Z" fill="#FFCC00"/>
<path d="M10.9994 23.6976L11.5873 22.0067L12.3766 22.3722L10.9994 23.6976Z" fill="#FFCC00"/>
<path d="M10.9994 23.6969L12.4142 22.6112L11.8252 21.968L10.9994 23.6969Z" fill="#FFCC00"/>
<path d="M1.77818 10.2964L1.26709 12.0124L2.11891 12.184L1.77818 10.2964Z" fill="#FFCC00"/>
<path d="M1.77822 10.2964L2.28931 12.0124L1.43749 12.184L1.77822 10.2964Z" fill="#FFCC00"/>
<path d="M3.39866 11.4823L1.62047 11.523L1.72167 12.392L3.39866 11.4823Z" fill="#FFCC00"/>
<path d="M3.3987 11.4826L1.93639 12.5025L1.51114 11.7395L3.3987 11.4826Z" fill="#FFCC00"/>
<path d="M2.77915 13.4012L2.19126 11.7103L1.40198 12.0758L2.77915 13.4012Z" fill="#FFCC00"/>
<path d="M2.77896 13.401L1.36411 12.3153L1.9531 11.6721L2.77896 13.401Z" fill="#FFCC00"/>
<path d="M0.157982 11.4823L1.93617 11.523L1.83497 12.392L0.157982 11.4823Z" fill="#FFCC00"/>
<path d="M0.157692 11.4826L1.62001 12.5025L2.04526 11.7395L0.157692 11.4826Z" fill="#FFCC00"/>
<path d="M0.777495 13.4012L1.36539 11.7103L2.15466 12.0758L0.777495 13.4012Z" fill="#FFCC00"/>
<path d="M0.777437 13.401L2.19229 12.3153L1.60329 11.6721L0.777437 13.401Z" fill="#FFCC00"/>
<path d="M6.01303 4.56215L7.42789 3.47644L6.83889 2.83327L6.01303 4.56215Z" fill="#FFCC00"/>
<path d="M6.01309 4.56188L6.60098 2.87097L7.39025 3.23647L6.01309 4.56188Z" fill="#FFCC00"/>
<path d="M5.39451 2.64271L6.85683 3.66261L7.28208 2.89961L5.39451 2.64271Z" fill="#FFCC00"/>
<path d="M5.39455 2.64294L7.17274 2.68361L7.07154 3.55267L5.39455 2.64294Z" fill="#FFCC00"/>
<path d="M7.015 1.45703L6.50391 3.17308L7.35572 3.34468L7.015 1.45703Z" fill="#FFCC00"/>
<path d="M7.01503 1.45703L7.52612 3.17308L6.67431 3.34468L7.01503 1.45703Z" fill="#FFCC00"/>
<path d="M8.01602 4.56166L6.60117 3.47595L7.19017 2.83278L8.01602 4.56166Z" fill="#FFCC00"/>
<path d="M8.01621 4.56139L7.42832 2.87048L6.63904 3.23598L8.01621 4.56139Z" fill="#FFCC00"/>
<path d="M8.63503 2.6432L7.17272 3.6631L6.74746 2.9001L8.63503 2.6432Z" fill="#FFCC00"/>
<path d="M8.63474 2.64343L6.85655 2.6841L6.95775 3.55315L8.63474 2.64343Z" fill="#FFCC00"/>
<path d="M4.22617 8.37877L3.63828 6.68786L2.849 7.05336L4.22617 8.37877Z" fill="#FFCC00"/>
<path d="M4.22598 8.37855L2.81113 7.29284L3.40013 6.64968L4.22598 8.37855Z" fill="#FFCC00"/>
<path d="M2.22324 8.38002L3.63809 7.29431L3.04909 6.65114L2.22324 8.38002Z" fill="#FFCC00"/>
<path d="M2.22305 8.37975L2.81094 6.68884L3.60021 7.05434L2.22305 8.37975Z" fill="#FFCC00"/>
<path d="M1.60422 6.46155L3.06654 7.48146L3.49179 6.71846L1.60422 6.46155Z" fill="#FFCC00"/>
<path d="M1.60427 6.4613L3.38246 6.50197L3.28126 7.37102L1.60427 6.4613Z" fill="#FFCC00"/>
<path d="M4.84524 6.46009L3.38292 7.47999L2.95767 6.71699L4.84524 6.46009Z" fill="#FFCC00"/>
<path d="M4.84519 6.45983L3.067 6.5005L3.1682 7.36956L4.84519 6.45983Z" fill="#FFCC00"/>
<path d="M3.22451 5.27441L3.7356 6.99046L2.88378 7.16207L3.22451 5.27441Z" fill="#FFCC00"/>
<path d="M3.22423 5.27441L2.71313 6.99046L3.56495 7.16207L3.22423 5.27441Z" fill="#FFCC00"/>
<path d="M4.84641 16.7811L3.06822 16.8218L3.16942 17.6908L4.84641 16.7811Z" fill="#FFCC00"/>
<path d="M4.8467 16.7814L3.38439 17.8013L2.95913 17.0383L4.8467 16.7814Z" fill="#FFCC00"/>
<path d="M4.22788 18.7001L3.63999 17.0091L2.85071 17.3747L4.22788 18.7001Z" fill="#FFCC00"/>
<path d="M4.22793 18.6994L2.81308 17.6136L3.40208 16.9705L4.22793 18.6994Z" fill="#FFCC00"/>
<path d="M2.22544 18.7003L3.64029 17.6146L3.05129 16.9715L2.22544 18.7003Z" fill="#FFCC00"/>
<path d="M2.22549 18.7005L2.81338 17.0096L3.60266 17.3751L2.22549 18.7005Z" fill="#FFCC00"/>
<path d="M3.22621 15.5947L3.7373 17.3108L2.88549 17.4824L3.22621 15.5947Z" fill="#FFCC00"/>
<path d="M3.22618 15.5947L2.71509 17.3108L3.56691 17.4824L3.22618 15.5947Z" fill="#FFCC00"/>
<path d="M1.60647 16.7806L3.38466 16.8213L3.28346 17.6904L1.60647 16.7806Z" fill="#FFCC00"/>
<path d="M1.60618 16.7809L3.0685 17.8008L3.49375 17.0378L1.60618 16.7809Z" fill="#FFCC00"/>
<path d="M8.54417 20.2342L6.76598 20.2749L6.86718 21.144L8.54417 20.2342Z" fill="#FFCC00"/>
<path d="M8.54446 20.2345L7.08214 21.2544L6.65689 20.4914L8.54446 20.2345Z" fill="#FFCC00"/>
<path d="M7.92563 22.1527L7.33774 20.4618L6.54847 20.8273L7.92563 22.1527Z" fill="#FFCC00"/>
<path d="M7.92544 22.153L6.51059 21.0673L7.09959 20.4241L7.92544 22.153Z" fill="#FFCC00"/>
<path d="M5.9227 22.153L7.33755 21.0673L6.74856 20.4241L5.9227 22.153Z" fill="#FFCC00"/>
<path d="M5.92251 22.1527L6.5104 20.4618L7.29968 20.8273L5.92251 22.1527Z" fill="#FFCC00"/>
<path d="M6.92397 19.0479L7.43506 20.7639L6.58324 20.9355L6.92397 19.0479Z" fill="#FFCC00"/>
<path d="M6.92393 19.0479L6.41284 20.7639L7.26466 20.9355L6.92393 19.0479Z" fill="#FFCC00"/>
<path d="M5.30422 20.2338L7.08241 20.2744L6.98121 21.1435L5.30422 20.2338Z" fill="#FFCC00"/>
<path d="M5.30393 20.234L6.76625 21.2539L7.1915 20.4909L5.30393 20.234Z" fill="#FFCC00"/>
<path d="M22.2221 10.2959L22.7332 12.0119L21.8813 12.1835L22.2221 10.2959Z" fill="#FFCC00"/>
<path d="M22.222 10.2959L21.7109 12.0119L22.5628 12.1835L22.222 10.2959Z" fill="#FFCC00"/>
<path d="M20.6016 11.4818L22.3798 11.5225L22.2786 12.3915L20.6016 11.4818Z" fill="#FFCC00"/>
<path d="M20.6013 11.4821L22.0636 12.502L22.4889 11.739L20.6013 11.4821Z" fill="#FFCC00"/>
<path d="M21.2213 13.4007L21.8092 11.7098L22.5985 12.0753L21.2213 13.4007Z" fill="#FFCC00"/>
<path d="M21.2213 13.4005L22.6361 12.3148L22.0471 11.6716L21.2213 13.4005Z" fill="#FFCC00"/>
<path d="M23.842 11.4818L22.0638 11.5225L22.165 12.3915L23.842 11.4818Z" fill="#FFCC00"/>
<path d="M23.8423 11.4821L22.38 12.502L21.9547 11.739L23.8423 11.4821Z" fill="#FFCC00"/>
<path d="M23.2223 13.4007L22.6344 11.7098L21.8451 12.0753L23.2223 13.4007Z" fill="#FFCC00"/>
<path d="M23.2223 13.4005L21.8075 12.3148L22.3965 11.6716L23.2223 13.4005Z" fill="#FFCC00"/>
<path d="M17.987 4.56166L16.5721 3.47595L17.1611 2.83278L17.987 4.56166Z" fill="#FFCC00"/>
<path d="M17.9874 4.56139L17.3995 2.87048L16.6102 3.23598L17.9874 4.56139Z" fill="#FFCC00"/>
<path d="M18.606 2.64222L17.1437 3.66212L16.7184 2.89912L18.606 2.64222Z" fill="#FFCC00"/>
<path d="M18.6057 2.64245L16.8275 2.68312L16.9287 3.55218L18.6057 2.64245Z" fill="#FFCC00"/>
<path d="M16.9855 1.45703L17.4966 3.17308L16.6448 3.34468L16.9855 1.45703Z" fill="#FFCC00"/>
<path d="M16.9852 1.45703L16.4741 3.17308L17.3259 3.34468L16.9852 1.45703Z" fill="#FFCC00"/>
<path d="M15.9842 4.56166L17.3991 3.47595L16.8101 2.83278L15.9842 4.56166Z" fill="#FFCC00"/>
<path d="M15.984 4.56139L16.5719 2.87048L17.3612 3.23598L15.984 4.56139Z" fill="#FFCC00"/>
<path d="M15.3652 2.64271L16.8275 3.66261L17.2528 2.89961L15.3652 2.64271Z" fill="#FFCC00"/>
<path d="M15.3653 2.64294L17.1434 2.68361L17.0422 3.55267L15.3653 2.64294Z" fill="#FFCC00"/>
<path d="M19.7741 8.3778L20.362 6.68688L21.1512 7.05239L19.7741 8.3778Z" fill="#FFCC00"/>
<path d="M19.774 8.37758L21.1889 7.29186L20.5999 6.6487L19.774 8.37758Z" fill="#FFCC00"/>
<path d="M21.7765 8.37904L20.3617 7.29333L20.9507 6.65016L21.7765 8.37904Z" fill="#FFCC00"/>
<path d="M21.7767 8.37926L21.1888 6.68835L20.3995 7.05385L21.7767 8.37926Z" fill="#FFCC00"/>
<path d="M22.3958 6.46058L20.9335 7.48048L20.5082 6.71748L22.3958 6.46058Z" fill="#FFCC00"/>
<path d="M22.3955 6.46032L20.6173 6.50099L20.7185 7.37005L22.3955 6.46032Z" fill="#FFCC00"/>
<path d="M19.1548 6.45911L20.6171 7.47902L21.0423 6.71602L19.1548 6.45911Z" fill="#FFCC00"/>
<path d="M19.1551 6.45886L20.9332 6.49953L20.832 7.36858L19.1551 6.45886Z" fill="#FFCC00"/>
<path d="M20.7755 5.27344L20.2644 6.98948L21.1162 7.16109L20.7755 5.27344Z" fill="#FFCC00"/>
<path d="M20.7755 5.27344L21.2866 6.98948L20.4348 7.16109L20.7755 5.27344Z" fill="#FFCC00"/>
<path d="M19.1533 16.7811L20.9315 16.8218L20.8303 17.6908L19.1533 16.7811Z" fill="#FFCC00"/>
<path d="M19.1531 16.7814L20.6154 17.8013L21.0406 17.0383L19.1531 16.7814Z" fill="#FFCC00"/>
<path d="M19.7721 18.7001L20.36 17.0091L21.1493 17.3747L19.7721 18.7001Z" fill="#FFCC00"/>
<path d="M19.7721 18.6994L21.1869 17.6136L20.5979 16.9705L19.7721 18.6994Z" fill="#FFCC00"/>
<path d="M21.7748 18.7008L20.36 17.6151L20.949 16.9719L21.7748 18.7008Z" fill="#FFCC00"/>
<path d="M21.775 18.701L21.1871 17.0101L20.3978 17.3756L21.775 18.701Z" fill="#FFCC00"/>
<path d="M20.774 15.5952L20.2629 17.3113L21.1148 17.4829L20.774 15.5952Z" fill="#FFCC00"/>
<path d="M20.7743 15.5952L21.2854 17.3113L20.4336 17.4829L20.7743 15.5952Z" fill="#FFCC00"/>
<path d="M22.394 16.7811L20.6158 16.8218L20.717 17.6908L22.394 16.7811Z" fill="#FFCC00"/>
<path d="M22.3941 16.7814L20.9317 17.8013L20.5065 17.0383L22.3941 16.7814Z" fill="#FFCC00"/>
<path d="M15.4558 20.2347L17.234 20.2754L17.1328 21.1445L15.4558 20.2347Z" fill="#FFCC00"/>
<path d="M15.4555 20.235L16.9179 21.2549L17.3431 20.4919L15.4555 20.235Z" fill="#FFCC00"/>
<path d="M16.0744 22.1532L16.6623 20.4623L17.4515 20.8278L16.0744 22.1532Z" fill="#FFCC00"/>
<path d="M16.0746 22.153L17.4894 21.0673L16.9004 20.4241L16.0746 22.153Z" fill="#FFCC00"/>
<path d="M18.0775 22.1535L16.6627 21.0677L17.2517 20.4246L18.0775 22.1535Z" fill="#FFCC00"/>
<path d="M18.0775 22.1532L17.4896 20.4623L16.7003 20.8278L18.0775 22.1532Z" fill="#FFCC00"/>
<path d="M17.076 19.0488L16.5649 20.7649L17.4168 20.9365L17.076 19.0488Z" fill="#FFCC00"/>
<path d="M17.0761 19.0488L17.5872 20.7649L16.7353 20.9365L17.0761 19.0488Z" fill="#FFCC00"/>
<path d="M18.6955 20.2357L16.9173 20.2764L17.0185 21.1454L18.6955 20.2357Z" fill="#FFCC00"/>
<path d="M18.6961 20.2355L17.2338 21.2554L16.8085 20.4924L18.6961 20.2355Z" fill="#FFCC00"/>
</svg>
