<svg width="40" height="40" viewBox="0 0 40 40" fill="none" xmlns="http://www.w3.org/2000/svg">
<path d="M17.1348 24.7733V21.7156C17.1348 20.9351 17.7722 20.3023 18.5584 20.3023H21.4326C21.8102 20.3023 22.1723 20.4512 22.4393 20.7163C22.7063 20.9813 22.8563 21.3408 22.8563 21.7156V24.7733C22.8539 25.0978 22.9821 25.4099 23.2124 25.6402C23.4427 25.8705 23.756 26 24.0829 26H26.0438C26.9596 26.0023 27.8388 25.6428 28.4872 25.0008C29.1356 24.3588 29.5 23.487 29.5 22.5778V13.8669C29.5 13.1325 29.1721 12.4358 28.6046 11.9647L21.934 6.67587C20.7737 5.74856 19.1111 5.7785 17.9854 6.74698L11.467 11.9647C10.8727 12.422 10.5176 13.1206 10.5 13.8669V22.5689C10.5 24.4639 12.0474 26 13.9562 26H15.8723C16.5512 26 17.103 25.4562 17.1079 24.7822L17.1348 24.7733Z" stroke="#BDBDBD" stroke-width="1.5" stroke-linejoin="round"/>
</svg>
