<svg width="40" height="40" viewBox="0 0 40 40" fill="none" xmlns="http://www.w3.org/2000/svg">
<path d="M28.3335 14.1818C28.3335 19.1492 23.1543 23.5626 20.8816 25.2602C20.255 25.7282 19.412 25.7282 18.7854 25.2602C16.5127 23.5626 11.3335 19.1492 11.3335 14.1818C11.3335 12.0119 12.229 9.93079 13.8231 8.3964C15.4171 6.86201 17.5792 6 19.8335 6C22.0878 6 24.2498 6.86201 25.8439 8.3964C27.438 9.93079 28.3335 12.0119 28.3335 14.1818Z" fill="#007BFF"/>
<path d="M19.8335 17C21.2142 17 22.3335 15.8807 22.3335 14.5C22.3335 13.1193 21.2142 12 19.8335 12C18.4528 12 17.3335 13.1193 17.3335 14.5C17.3335 15.8807 18.4528 17 19.8335 17Z" fill="white"/>
<circle cx="20" cy="33" r="3" fill="#007BFF"/>
</svg>
