<svg width="40" height="40" viewBox="0 0 40 40" fill="none" xmlns="http://www.w3.org/2000/svg">
<path d="M28.3333 14.1818C28.3333 19.1492 23.1541 23.5626 20.8813 25.2602C20.2548 25.7282 19.4117 25.7282 18.7852 25.2602C16.5124 23.5626 11.3333 19.1492 11.3333 14.1818C11.3333 12.0119 12.2288 9.93079 13.8228 8.3964C15.4169 6.86201 17.5789 6 19.8333 6C22.0876 6 24.2496 6.86201 25.8437 8.3964C27.4377 9.93079 28.3333 12.0119 28.3333 14.1818Z" stroke="#BDBDBD" stroke-width="1.5" stroke-linejoin="round"/>
<path d="M19.8333 17C21.214 17 22.3333 15.8807 22.3333 14.5C22.3333 13.1193 21.214 12 19.8333 12C18.4525 12 17.3333 13.1193 17.3333 14.5C17.3333 15.8807 18.4525 17 19.8333 17Z" stroke="#BDBDBD" stroke-width="1.5" stroke-linejoin="round"/>
</svg>
