<svg width="40" height="40" viewBox="0 0 40 40" fill="none" xmlns="http://www.w3.org/2000/svg">
<path d="M30 12.8621C30.0034 14.4009 29.4106 15.8811 28.346 16.9922C25.9049 19.5232 23.5369 22.1622 21.0059 24.6003C20.4249 25.1503 19.5039 25.1303 18.9489 24.5553L11.6538 16.9932C9.44874 14.7071 9.44874 11.0171 11.6538 8.73203C12.1749 8.18502 12.8017 7.74953 13.4962 7.45198C14.1906 7.15443 14.9383 7.001 15.6938 7.001C16.4493 7.001 17.197 7.15443 17.8915 7.45198C18.5859 7.74953 19.2127 8.18502 19.7339 8.73203L19.9999 9.00603L20.2649 8.73203C20.7866 8.18576 21.4136 7.75071 22.1079 7.45305C22.8022 7.15539 23.5495 7.00128 24.3049 7C25.8249 7 27.278 7.62401 28.345 8.73203C29.41 9.84289 30.0032 11.3232 30 12.8621Z" fill="#007BFF"/>
<circle cx="20" cy="33" r="3" fill="#007BFF"/>
</svg>
