<svg width="166" height="68" viewBox="0 0 166 68" fill="none" xmlns="http://www.w3.org/2000/svg">
<circle cx="23.1034" cy="60.0687" r="6.93103" fill="white"/>
<circle cx="23.1034" cy="23.1034" r="23.1034" fill="white"/>
<path d="M80.1914 20.0264C80.1914 23.6599 79.4171 26.4582 77.8686 28.4212C76.3201 30.3843 74.1193 31.3658 71.2662 31.3658C68.5228 31.3658 66.3525 30.4147 64.7552 28.5127C63.1701 26.5984 62.3471 23.8977 62.2862 20.4105V15.3992C62.2862 11.8389 63.0726 9.05284 64.6455 7.04102C66.2184 5.01701 68.4131 4.005 71.2296 4.005C74.034 4.005 76.2165 4.97433 77.7772 6.913C79.3501 8.83947 80.1548 11.5951 80.1914 15.1798V20.0264ZM76.8444 15.3627C76.8444 12.5461 76.3811 10.455 75.4545 9.08942C74.54 7.71163 73.1317 7.02273 71.2296 7.02273C69.3885 7.02273 67.9924 7.71773 67.0414 9.10771C66.1025 10.4977 65.627 12.5461 65.6148 15.2529V20.0264C65.6148 22.7454 66.0842 24.8182 67.0231 26.2448C67.9741 27.6713 69.3885 28.3846 71.2662 28.3846C73.1439 28.3846 74.5339 27.7262 75.4362 26.4094C76.3384 25.0926 76.8079 23.0746 76.8444 20.3556V15.3627ZM90.4517 22.6052L90.7992 25.5864L91.3296 22.9527L95.591 4.37079H98.3892L102.523 22.9527L103.053 25.6595L103.437 22.5869L106.693 4.37079H110.04L104.736 31H101.718L97.2736 11.5951L96.9992 10.0222L96.7249 11.5951L92.116 31H89.08L83.7944 4.37079H87.1413L90.4517 22.6052ZM131.292 31H127.926L117.264 10.4794V31H113.899V4.37079H117.264L127.963 24.9828V4.37079H131.292V31Z" fill="white"/>
<path d="M64.7552 28.5127L64.2392 28.94L64.2421 28.9435L64.7552 28.5127ZM62.2862 20.4105H61.6161L61.6163 20.4222L62.2862 20.4105ZM64.6455 7.04102L65.1733 7.45369L65.1745 7.45214L64.6455 7.04102ZM77.7772 6.913L77.2553 7.33315L77.2582 7.33673L77.7772 6.913ZM80.1914 15.1798L80.8614 15.1798L80.8613 15.1729L80.1914 15.1798ZM75.4545 9.08942L74.8962 9.45995L74.9 9.46563L75.4545 9.08942ZM67.0414 9.10771L66.4884 8.72937L66.4862 8.7327L67.0414 9.10771ZM65.6148 15.2529L64.9448 15.2499V15.2529H65.6148ZM67.0231 26.2448L66.4634 26.6131L66.4656 26.6164L67.0231 26.2448ZM76.8444 20.3556L77.5144 20.3646V20.3556H76.8444ZM80.1914 20.0264H79.5214C79.5214 23.5754 78.7638 26.2045 77.3426 28.0063L77.8686 28.4212L78.3947 28.8362C80.0704 26.7118 80.8614 23.7444 80.8614 20.0264H80.1914ZM77.8686 28.4212L77.3426 28.0063C75.9402 29.7842 73.9469 30.6958 71.2662 30.6958V31.3658V32.0358C74.2917 32.0358 76.7001 30.9844 78.3947 28.8362L77.8686 28.4212ZM71.2662 31.3658V30.6958C68.6974 30.6958 66.724 29.8153 65.2683 28.0818L64.7552 28.5127L64.2421 28.9435C65.981 31.0142 68.3482 32.0358 71.2662 32.0358V31.3658ZM64.7552 28.5127L65.2713 28.0854C63.8156 26.3274 63.0154 23.7942 62.9561 20.3988L62.2862 20.4105L61.6163 20.4222C61.6788 24.0011 62.5247 26.8694 64.2392 28.94L64.7552 28.5127ZM62.2862 20.4105H62.9562V15.3992H62.2862H61.6162V20.4105H62.2862ZM62.2862 15.3992H62.9562C62.9562 11.9306 63.7228 9.309 65.1733 7.45369L64.6455 7.04102L64.1177 6.62835C62.4224 8.79669 61.6162 11.7473 61.6162 15.3992H62.2862ZM64.6455 7.04102L65.1745 7.45214C66.6067 5.60912 68.5965 4.675 71.2296 4.675V4.005V3.335C68.2297 3.335 65.83 4.4249 64.1164 6.6299L64.6455 7.04102ZM71.2296 4.005V4.675C73.8603 4.675 75.839 5.57381 77.2553 7.33314L77.7772 6.913L78.2991 6.49285C76.594 4.37485 74.2077 3.335 71.2296 3.335V4.005ZM77.7772 6.913L77.2582 7.33673C78.7004 9.10319 79.4857 11.6887 79.5214 15.1866L80.1914 15.1798L80.8613 15.1729C80.8239 11.5015 79.9997 8.57575 78.2962 6.48926L77.7772 6.913ZM80.1914 15.1798H79.5214V20.0264H80.1914H80.8614V15.1798H80.1914ZM76.8444 15.3627H77.5144C77.5144 12.4964 77.0473 10.2436 76.0089 8.71322L75.4545 9.08942L74.9 9.46563C75.7149 10.6665 76.1744 12.5958 76.1744 15.3627H76.8444ZM75.4545 9.08942L76.0127 8.71892C74.9538 7.12354 73.3169 6.35273 71.2296 6.35273V7.02273V7.69273C72.9465 7.69273 74.1262 8.29972 74.8962 9.45993L75.4545 9.08942ZM71.2296 7.02273V6.35273C69.1916 6.35273 67.5774 7.13773 66.4884 8.72937L67.0414 9.10771L67.5943 9.48605C68.4074 8.29772 69.5854 7.69273 71.2296 7.69273V7.02273ZM67.0414 9.10771L66.4862 8.7327C65.4403 10.2812 64.9573 12.4846 64.9448 15.2499L65.6148 15.2529L66.2848 15.2559C66.2967 12.6076 66.7648 10.7142 67.5966 9.48273L67.0414 9.10771ZM65.6148 15.2529H64.9448V20.0264H65.6148H66.2848V15.2529H65.6148ZM65.6148 20.0264H64.9448C64.9448 22.8054 65.4216 25.0301 66.4634 26.6131L67.0231 26.2448L67.5828 25.8765C66.7469 24.6064 66.2848 22.6854 66.2848 20.0264H65.6148ZM67.0231 26.2448L66.4656 26.6164C67.5543 28.2494 69.1897 29.0546 71.2662 29.0546V28.3846V27.7146C69.5873 27.7146 68.394 27.0933 67.5806 25.8731L67.0231 26.2448ZM71.2662 28.3846V29.0546C73.3201 29.0546 74.9383 28.3213 75.9889 26.7881L75.4362 26.4094L74.8835 26.0307C74.1295 27.1311 72.9677 27.7146 71.2662 27.7146V28.3846ZM75.4362 26.4094L75.9889 26.7881C77.0018 25.3097 77.4771 23.133 77.5144 20.3646L76.8444 20.3556L76.1745 20.3466C76.1386 23.0162 75.6751 24.8754 74.8835 26.0307L75.4362 26.4094ZM76.8444 20.3556H77.5144V15.3627H76.8444H76.1744V20.3556H76.8444ZM90.4517 22.6052L91.1172 22.5276L91.1147 22.5065L91.1109 22.4855L90.4517 22.6052ZM90.7992 25.5864L90.1337 25.6639L91.456 25.7186L90.7992 25.5864ZM91.3296 22.9527L90.6765 22.8029L90.6745 22.8117L90.6728 22.8204L91.3296 22.9527ZM95.591 4.37079V3.70079H95.0572L94.9379 4.22102L95.591 4.37079ZM98.3892 4.37079L99.0432 4.22531L98.9266 3.70079H98.3892V4.37079ZM102.523 22.9527L103.18 22.8239L103.178 22.8155L103.177 22.8072L102.523 22.9527ZM103.053 25.6595L102.396 25.7884L103.718 25.7426L103.053 25.6595ZM103.437 22.5869L102.778 22.4691L102.774 22.4864L102.772 22.5038L103.437 22.5869ZM106.693 4.37079V3.70079H106.132L106.033 4.25291L106.693 4.37079ZM110.04 4.37079L110.697 4.50166L110.856 3.70079H110.04V4.37079ZM104.736 31V31.67H105.285L105.393 31.1309L104.736 31ZM101.718 31L101.065 31.1496L101.184 31.67H101.718V31ZM97.2736 11.5951L96.6135 11.7102L96.6166 11.7275L96.6205 11.7446L97.2736 11.5951ZM96.9992 10.0222L97.6593 9.90706H96.3392L96.9992 10.0222ZM96.7249 11.5951L97.3768 11.7499L97.3815 11.7302L97.3849 11.7102L96.7249 11.5951ZM92.116 31V31.67H92.6455L92.7679 31.1548L92.116 31ZM89.08 31L88.4228 31.1304L88.5299 31.67H89.08V31ZM83.7944 4.37079V3.70079H82.9783L83.1372 4.50123L83.7944 4.37079ZM87.1413 4.37079L87.8005 4.25111L87.7006 3.70079H87.1413V4.37079ZM90.4517 22.6052L89.7862 22.6828L90.1337 25.6639L90.7992 25.5864L91.4647 25.5088L91.1172 22.5276L90.4517 22.6052ZM90.7992 25.5864L91.456 25.7186L91.9864 23.085L91.3296 22.9527L90.6728 22.8204L90.1424 25.4541L90.7992 25.5864ZM91.3296 22.9527L91.9826 23.1025L96.244 4.52055L95.591 4.37079L94.9379 4.22102L90.6765 22.8029L91.3296 22.9527ZM95.591 4.37079V5.04079H98.3892V4.37079V3.70079H95.591V4.37079ZM98.3892 4.37079L97.7352 4.51626L101.869 23.0982L102.523 22.9527L103.177 22.8072L99.0432 4.22531L98.3892 4.37079ZM102.523 22.9527L101.865 23.0815L102.396 25.7884L103.053 25.6595L103.71 25.5307L103.18 22.8239L102.523 22.9527ZM103.053 25.6595L103.718 25.7426L104.102 22.67L103.437 22.5869L102.772 22.5038L102.388 25.5764L103.053 25.6595ZM103.437 22.5869L104.097 22.7048L107.352 4.48866L106.693 4.37079L106.033 4.25291L102.778 22.4691L103.437 22.5869ZM106.693 4.37079V5.04079H110.04V4.37079V3.70079H106.693V4.37079ZM110.04 4.37079L109.382 4.23991L104.079 30.8691L104.736 31L105.393 31.1309L110.697 4.50166L110.04 4.37079ZM104.736 31V30.33H101.718V31V31.67H104.736V31ZM101.718 31L102.371 30.8504L97.9267 11.4455L97.2736 11.5951L96.6205 11.7446L101.065 31.1496L101.718 31ZM97.2736 11.5951L97.9336 11.4799L97.6593 9.90706L96.9992 10.0222L96.3392 10.1373L96.6135 11.7102L97.2736 11.5951ZM96.9992 10.0222L96.3392 9.90706L96.0649 11.4799L96.7249 11.5951L97.3849 11.7102L97.6593 10.1373L96.9992 10.0222ZM96.7249 11.5951L96.073 11.4402L91.4641 30.8452L92.116 31L92.7679 31.1548L97.3768 11.7499L96.7249 11.5951ZM92.116 31V30.33H89.08V31V31.67H92.116V31ZM89.08 31L89.7372 30.8696L84.4516 4.24034L83.7944 4.37079L83.1372 4.50123L88.4228 31.1304L89.08 31ZM83.7944 4.37079V5.04079H87.1413V4.37079V3.70079H83.7944V4.37079ZM87.1413 4.37079L86.4821 4.49046L89.7925 22.7249L90.4517 22.6052L91.1109 22.4855L87.8005 4.25111L87.1413 4.37079ZM131.292 31V31.67H131.962V31H131.292ZM127.926 31L127.332 31.3089L127.52 31.67H127.926V31ZM117.264 10.4794L117.858 10.1705L116.594 10.4794H117.264ZM117.264 31V31.67H117.934V31H117.264ZM113.899 31H113.229V31.67H113.899V31ZM113.899 4.37079V3.70079H113.229V4.37079H113.899ZM117.264 4.37079L117.858 4.06211L117.671 3.70079H117.264V4.37079ZM127.963 24.9828L127.368 25.2915L128.633 24.9828H127.963ZM127.963 4.37079V3.70079H127.293V4.37079H127.963ZM131.292 4.37079H131.962V3.70079H131.292V4.37079ZM131.292 31V30.33H127.926V31V31.67H131.292V31ZM127.926 31L128.521 30.6911L117.858 10.1705L117.264 10.4794L116.669 10.7883L127.332 31.3089L127.926 31ZM117.264 10.4794H116.594V31H117.264H117.934V10.4794H117.264ZM117.264 31V30.33H113.899V31V31.67H117.264V31ZM113.899 31H114.569V4.37079H113.899H113.229V31H113.899ZM113.899 4.37079V5.04079H117.264V4.37079V3.70079H113.899V4.37079ZM117.264 4.37079L116.669 4.67946L127.368 25.2915L127.963 24.9828L128.558 24.6741L117.858 4.06211L117.264 4.37079ZM127.963 24.9828H128.633V4.37079H127.963H127.293V24.9828H127.963ZM127.963 4.37079V5.04079H131.292V4.37079V3.70079H127.963V4.37079ZM131.292 4.37079H130.622V31H131.292H131.962V4.37079H131.292Z" fill="white"/>
<path d="M32.3447 16.1723L21.2013 28.2327C20.2155 29.2996 18.5592 29.3869 17.4667 28.4296L12.7068 24.2585" stroke="#007BFF" stroke-width="3.35" stroke-linecap="round" stroke-linejoin="round"/>
<path d="M79.5695 57.5503C79.4232 60.4035 78.6185 62.586 77.1554 64.0979C75.7044 65.6098 73.6499 66.3658 70.9919 66.3658C68.3216 66.3658 66.2001 65.3538 64.6272 63.3298C63.0543 61.2936 62.2679 58.538 62.2679 55.063V50.2346C62.2679 46.7719 63.0726 44.0346 64.6821 42.0227C66.3037 40.0109 68.5106 39.005 71.3028 39.005C73.8755 39.005 75.8629 39.7792 77.2651 41.3277C78.6795 42.864 79.4476 45.0649 79.5695 47.9302H76.186C76.0397 45.7598 75.5825 44.2114 74.8143 43.2847C74.0462 42.358 72.8757 41.8947 71.3028 41.8947C69.486 41.8947 68.09 42.608 67.1145 44.0346C66.1391 45.4489 65.6514 47.5278 65.6514 50.2712V55.1544C65.6514 57.8491 66.1025 59.9158 67.0048 61.3545C67.9193 62.7933 69.2483 63.5127 70.9919 63.5127C72.7354 63.5127 73.9913 63.0798 74.7595 62.2141C75.5276 61.3484 76.0031 59.7938 76.186 57.5503H79.5695ZM101.553 66H98.188V53.6913H87.4705V66H84.1236V39.3708H87.4705V50.8199H98.188V39.3708H101.553V66ZM120.117 53.6913H110.698V63.1286H121.672V66H107.351V39.3708H121.489V42.2605H110.698V50.8199H120.117V53.6913ZM142.668 57.5503C142.521 60.4035 141.717 62.586 140.253 64.0979C138.802 65.6098 136.748 66.3658 134.09 66.3658C131.42 66.3658 129.298 65.3538 127.725 63.3298C126.152 61.2936 125.366 58.538 125.366 55.063V50.2346C125.366 46.7719 126.171 44.0346 127.78 42.0227C129.402 40.0109 131.609 39.005 134.401 39.005C136.974 39.005 138.961 39.7792 140.363 41.3277C141.778 42.864 142.546 45.0649 142.668 47.9302H139.284C139.138 45.7598 138.681 44.2114 137.912 43.2847C137.144 42.358 135.974 41.8947 134.401 41.8947C132.584 41.8947 131.188 42.608 130.213 44.0346C129.237 45.4489 128.749 47.5278 128.749 50.2712V55.1544C128.749 57.8491 129.201 59.9158 130.103 61.3545C131.017 62.7933 132.346 63.5127 134.09 63.5127C135.834 63.5127 137.089 63.0798 137.858 62.2141C138.626 61.3484 139.101 59.7938 139.284 57.5503H142.668ZM153.184 53.7279L150.569 56.8919V66H147.222V39.3708H150.569V52.2282L152.763 49.3202L159.933 39.3708H163.956L155.306 51.0942L164.633 66H160.628L153.184 53.7279Z" fill="white"/>
<path d="M79.5695 57.5503L80.3186 57.5888L80.359 56.8003H79.5695V57.5503ZM77.1554 64.0979L76.6164 63.5763L76.6142 63.5786L77.1554 64.0979ZM64.6272 63.3298L64.0336 63.7882L64.035 63.79L64.6272 63.3298ZM64.6821 42.0227L64.0981 41.5521L64.0964 41.5542L64.6821 42.0227ZM77.2651 41.3277L76.7091 41.8312L76.7133 41.8357L77.2651 41.3277ZM79.5695 47.9302V48.6802H80.3521L80.3189 47.8983L79.5695 47.9302ZM76.186 47.9302L75.4377 47.9806L75.4849 48.6802H76.186V47.9302ZM67.1145 44.0346L67.732 44.4604L67.7336 44.4579L67.1145 44.0346ZM67.0048 61.3545L66.3694 61.753L66.3718 61.7568L67.0048 61.3545ZM76.186 57.5503V56.8003H75.4947L75.4385 57.4894L76.186 57.5503ZM79.5695 57.5503L78.8205 57.5119C78.6802 60.2491 77.9144 62.2351 76.6164 63.5763L77.1554 64.0979L77.6943 64.6195C79.3226 62.9369 80.1663 60.5578 80.3186 57.5888L79.5695 57.5503ZM77.1554 64.0979L76.6142 63.5786C75.3404 64.906 73.5037 65.6158 70.9919 65.6158V66.3658V67.1158C73.7962 67.1158 76.0684 66.3137 77.6965 64.6172L77.1554 64.0979ZM70.9919 66.3658V65.6158C68.5419 65.6158 66.6434 64.702 65.2194 62.8696L64.6272 63.3298L64.035 63.79C65.7567 66.0055 68.1013 67.1158 70.9919 67.1158V66.3658ZM64.6272 63.3298L65.2207 62.8713C63.7797 61.0057 63.0179 58.4297 63.0179 55.063H62.2679H61.5179C61.5179 58.6462 62.329 61.5814 64.0336 63.7882L64.6272 63.3298ZM62.2679 55.063H63.0179V50.2346H62.2679H61.5179V55.063H62.2679ZM62.2679 50.2346H63.0179C63.0179 46.8837 63.7962 44.3307 65.2677 42.4913L64.6821 42.0227L64.0964 41.5542C62.349 43.7384 61.5179 46.66 61.5179 50.2346H62.2679ZM64.6821 42.0227L65.266 42.4934C66.7326 40.6739 68.7166 39.755 71.3028 39.755V39.005V38.255C68.3047 38.255 65.8748 39.3479 64.0981 41.5521L64.6821 42.0227ZM71.3028 39.005V39.755C73.7166 39.755 75.4812 40.475 76.7092 41.8312L77.2651 41.3277L77.821 40.8243C76.2447 39.0835 74.0344 38.255 71.3028 38.255V39.005ZM77.2651 41.3277L76.7133 41.8357C77.9695 43.2002 78.703 45.2078 78.8202 47.9621L79.5695 47.9302L80.3189 47.8983C80.1922 44.9219 79.3895 42.5279 77.8169 40.8198L77.2651 41.3277ZM79.5695 47.9302V47.1802H76.186V47.9302V48.6802H79.5695V47.9302ZM76.186 47.9302L76.9343 47.8797C76.7849 45.6631 76.3135 43.918 75.3917 42.8061L74.8143 43.2847L74.2369 43.7633C74.8514 44.5047 75.2945 45.8566 75.4377 47.9806L76.186 47.9302ZM74.8143 43.2847L75.3917 42.8061C74.44 41.658 73.0254 41.1447 71.3028 41.1447V41.8947V42.6447C72.7259 42.6447 73.6523 43.0581 74.2369 43.7633L74.8143 43.2847ZM71.3028 41.8947V41.1447C69.2535 41.1447 67.6189 41.9681 66.4954 43.6112L67.1145 44.0346L67.7336 44.4579C68.561 43.2479 69.7186 42.6447 71.3028 42.6447V41.8947ZM67.1145 44.0346L66.4971 43.6088C65.3978 45.2028 64.9014 47.4591 64.9014 50.2712H65.6514H66.4014C66.4014 47.5966 66.8804 45.695 67.7319 44.4604L67.1145 44.0346ZM65.6514 50.2712H64.9014V55.1544H65.6514H66.4014V50.2712H65.6514ZM65.6514 55.1544H64.9014C64.9014 57.9146 65.3603 60.1439 66.3694 61.753L67.0048 61.3545L67.6402 60.9561C66.8447 59.6876 66.4014 57.7835 66.4014 55.1544H65.6514ZM67.0048 61.3545L66.3718 61.7568C67.4277 63.418 68.9988 64.2627 70.9919 64.2627V63.5127V62.7627C69.4978 62.7627 68.4108 62.1685 67.6378 60.9522L67.0048 61.3545ZM70.9919 63.5127V64.2627C72.8407 64.2627 74.3508 63.8047 75.3205 62.7119L74.7595 62.2141L74.1985 61.7163C73.6319 62.3549 72.6302 62.7627 70.9919 62.7627V63.5127ZM74.7595 62.2141L75.3205 62.7119C76.2591 61.6541 76.748 59.8869 76.9335 57.6113L76.186 57.5503L75.4385 57.4894C75.2582 59.7007 74.7962 61.0428 74.1985 61.7163L74.7595 62.2141ZM76.186 57.5503V58.3003H79.5695V57.5503V56.8003H76.186V57.5503ZM101.553 66V66.75H102.303V66H101.553ZM98.188 66H97.438V66.75H98.188V66ZM98.188 53.6913H98.938V52.9413H98.188V53.6913ZM87.4705 53.6913V52.9413H86.7205V53.6913H87.4705ZM87.4705 66V66.75H88.2205V66H87.4705ZM84.1236 66H83.3736V66.75H84.1236V66ZM84.1236 39.3708V38.6208H83.3736V39.3708H84.1236ZM87.4705 39.3708H88.2205V38.6208H87.4705V39.3708ZM87.4705 50.8199H86.7205V51.5699H87.4705V50.8199ZM98.188 50.8199V51.5699H98.938V50.8199H98.188ZM98.188 39.3708V38.6208H97.438V39.3708H98.188ZM101.553 39.3708H102.303V38.6208H101.553V39.3708ZM101.553 66V65.25H98.188V66V66.75H101.553V66ZM98.188 66H98.938V53.6913H98.188H97.438V66H98.188ZM98.188 53.6913V52.9413H87.4705V53.6913V54.4413H98.188V53.6913ZM87.4705 53.6913H86.7205V66H87.4705H88.2205V53.6913H87.4705ZM87.4705 66V65.25H84.1236V66V66.75H87.4705V66ZM84.1236 66H84.8736V39.3708H84.1236H83.3736V66H84.1236ZM84.1236 39.3708V40.1208H87.4705V39.3708V38.6208H84.1236V39.3708ZM87.4705 39.3708H86.7205V50.8199H87.4705H88.2205V39.3708H87.4705ZM87.4705 50.8199V51.5699H98.188V50.8199V50.0699H87.4705V50.8199ZM98.188 50.8199H98.938V39.3708H98.188H97.438V50.8199H98.188ZM98.188 39.3708V40.1208H101.553V39.3708V38.6208H98.188V39.3708ZM101.553 39.3708H100.803V66H101.553H102.303V39.3708H101.553ZM120.117 53.6913V54.4413H120.867V53.6913H120.117ZM110.698 53.6913V52.9413H109.948V53.6913H110.698ZM110.698 63.1286H109.948V63.8786H110.698V63.1286ZM121.672 63.1286H122.422V62.3786H121.672V63.1286ZM121.672 66V66.75H122.422V66H121.672ZM107.351 66H106.601V66.75H107.351V66ZM107.351 39.3708V38.6208H106.601V39.3708H107.351ZM121.489 39.3708H122.239V38.6208H121.489V39.3708ZM121.489 42.2605V43.0105H122.239V42.2605H121.489ZM110.698 42.2605V41.5105H109.948V42.2605H110.698ZM110.698 50.8199H109.948V51.5699H110.698V50.8199ZM120.117 50.8199H120.867V50.0699H120.117V50.8199ZM120.117 53.6913V52.9413H110.698V53.6913V54.4413H120.117V53.6913ZM110.698 53.6913H109.948V63.1286H110.698H111.448V53.6913H110.698ZM110.698 63.1286V63.8786H121.672V63.1286V62.3786H110.698V63.1286ZM121.672 63.1286H120.922V66H121.672H122.422V63.1286H121.672ZM121.672 66V65.25H107.351V66V66.75H121.672V66ZM107.351 66H108.101V39.3708H107.351H106.601V66H107.351ZM107.351 39.3708V40.1208H121.489V39.3708V38.6208H107.351V39.3708ZM121.489 39.3708H120.739V42.2605H121.489H122.239V39.3708H121.489ZM121.489 42.2605V41.5105H110.698V42.2605V43.0105H121.489V42.2605ZM110.698 42.2605H109.948V50.8199H110.698H111.448V42.2605H110.698ZM110.698 50.8199V51.5699H120.117V50.8199V50.0699H110.698V50.8199ZM120.117 50.8199H119.367V53.6913H120.117H120.867V50.8199H120.117ZM142.668 57.5503L143.417 57.5888L143.457 56.8003H142.668V57.5503ZM140.253 64.0979L139.714 63.5763L139.712 63.5786L140.253 64.0979ZM127.725 63.3298L127.132 63.7882L127.133 63.79L127.725 63.3298ZM127.78 42.0227L127.196 41.5521L127.194 41.5542L127.78 42.0227ZM140.363 41.3277L139.807 41.8312L139.811 41.8357L140.363 41.3277ZM142.668 47.9302V48.6802H143.45L143.417 47.8983L142.668 47.9302ZM139.284 47.9302L138.536 47.9806L138.583 48.6802H139.284V47.9302ZM130.213 44.0346L130.83 44.4604L130.832 44.4579L130.213 44.0346ZM130.103 61.3545L129.467 61.753L129.47 61.7568L130.103 61.3545ZM139.284 57.5503V56.8003H138.593L138.537 57.4894L139.284 57.5503ZM142.668 57.5503L141.919 57.5119C141.778 60.2491 141.012 62.2351 139.714 63.5763L140.253 64.0979L140.792 64.6195C142.421 62.9369 143.264 60.5578 143.417 57.5888L142.668 57.5503ZM140.253 64.0979L139.712 63.5786C138.438 64.906 136.602 65.6158 134.09 65.6158V66.3658V67.1158C136.894 67.1158 139.166 66.3137 140.795 64.6172L140.253 64.0979ZM134.09 66.3658V65.6158C131.64 65.6158 129.742 64.702 128.317 62.8696L127.725 63.3298L127.133 63.79C128.855 66.0055 131.199 67.1158 134.09 67.1158V66.3658ZM127.725 63.3298L128.319 62.8713C126.878 61.0057 126.116 58.4297 126.116 55.063H125.366H124.616C124.616 58.6462 125.427 61.5814 127.132 63.7882L127.725 63.3298ZM125.366 55.063H126.116V50.2346H125.366H124.616V55.063H125.366ZM125.366 50.2346H126.116C126.116 46.8837 126.894 44.3307 128.366 42.4913L127.78 42.0227L127.194 41.5542C125.447 43.7384 124.616 46.66 124.616 50.2346H125.366ZM127.78 42.0227L128.364 42.4934C129.831 40.6739 131.815 39.755 134.401 39.755V39.005V38.255C131.403 38.255 128.973 39.3479 127.196 41.5521L127.78 42.0227ZM134.401 39.005V39.755C136.815 39.755 138.579 40.475 139.807 41.8312L140.363 41.3277L140.919 40.8243C139.343 39.0835 137.132 38.255 134.401 38.255V39.005ZM140.363 41.3277L139.811 41.8357C141.068 43.2002 141.801 45.2078 141.918 47.9621L142.668 47.9302L143.417 47.8983C143.29 44.9219 142.488 42.5279 140.915 40.8198L140.363 41.3277ZM142.668 47.9302V47.1802H139.284V47.9302V48.6802H142.668V47.9302ZM139.284 47.9302L140.032 47.8797C139.883 45.6631 139.412 43.918 138.49 42.8061L137.912 43.2847L137.335 43.7633C137.95 44.5047 138.393 45.8566 138.536 47.9806L139.284 47.9302ZM137.912 43.2847L138.49 42.8061C137.538 41.658 136.123 41.1447 134.401 41.1447V41.8947V42.6447C135.824 42.6447 136.75 43.0581 137.335 43.7633L137.912 43.2847ZM134.401 41.8947V41.1447C132.352 41.1447 130.717 41.9681 129.593 43.6112L130.213 44.0346L130.832 44.4579C131.659 43.2479 132.817 42.6447 134.401 42.6447V41.8947ZM130.213 44.0346L129.595 43.6088C128.496 45.2028 127.999 47.4591 127.999 50.2712H128.749H129.499C129.499 47.5966 129.979 45.695 130.83 44.4604L130.213 44.0346ZM128.749 50.2712H127.999V55.1544H128.749H129.499V50.2712H128.749ZM128.749 55.1544H127.999C127.999 57.9146 128.458 60.1439 129.467 61.753L130.103 61.3545L130.738 60.9561C129.943 59.6876 129.499 57.7835 129.499 55.1544H128.749ZM130.103 61.3545L129.47 61.7568C130.526 63.418 132.097 64.2627 134.09 64.2627V63.5127V62.7627C132.596 62.7627 131.509 62.1685 130.736 60.9522L130.103 61.3545ZM134.09 63.5127V64.2627C135.939 64.2627 137.449 63.8047 138.419 62.7119L137.858 62.2141L137.297 61.7163C136.73 62.3549 135.728 62.7627 134.09 62.7627V63.5127ZM137.858 62.2141L138.419 62.7119C139.357 61.6541 139.846 59.8869 140.032 57.6113L139.284 57.5503L138.537 57.4894C138.356 59.7007 137.894 61.0428 137.297 61.7163L137.858 62.2141ZM139.284 57.5503V58.3003H142.668V57.5503V56.8003H139.284V57.5503ZM153.184 53.7279L153.825 53.3389L153.278 52.4369L152.606 53.25L153.184 53.7279ZM150.569 56.8919L149.991 56.4141L149.819 56.6221V56.8919H150.569ZM150.569 66V66.75H151.319V66H150.569ZM147.222 66H146.472V66.75H147.222V66ZM147.222 39.3708V38.6208H146.472V39.3708H147.222ZM150.569 39.3708H151.319V38.6208H150.569V39.3708ZM150.569 52.2282H149.819V54.4669L151.167 52.68L150.569 52.2282ZM152.763 49.3202L153.362 49.772L153.367 49.7654L153.372 49.7586L152.763 49.3202ZM159.933 39.3708V38.6208H159.549L159.324 38.9323L159.933 39.3708ZM163.956 39.3708L164.56 39.8161L165.442 38.6208H163.956V39.3708ZM155.306 51.0942L154.702 50.6489L154.399 51.0595L154.67 51.4921L155.306 51.0942ZM164.633 66V66.75H165.987L165.269 65.6022L164.633 66ZM160.628 66L159.986 66.389L160.205 66.75H160.628V66ZM153.184 53.7279L152.606 53.25L149.991 56.4141L150.569 56.8919L151.147 57.3698L153.762 54.2057L153.184 53.7279ZM150.569 56.8919H149.819V66H150.569H151.319V56.8919H150.569ZM150.569 66V65.25H147.222V66V66.75H150.569V66ZM147.222 66H147.972V39.3708H147.222H146.472V66H147.222ZM147.222 39.3708V40.1208H150.569V39.3708V38.6208H147.222V39.3708ZM150.569 39.3708H149.819V52.2282H150.569H151.319V39.3708H150.569ZM150.569 52.2282L151.167 52.68L153.362 49.772L152.763 49.3202L152.165 48.8684L149.97 51.7764L150.569 52.2282ZM152.763 49.3202L153.372 49.7586L160.541 39.8092L159.933 39.3708L159.324 38.9323L152.155 48.8817L152.763 49.3202ZM159.933 39.3708V40.1208H163.956V39.3708V38.6208H159.933V39.3708ZM163.956 39.3708L163.353 38.9255L154.702 50.6489L155.306 51.0942L155.909 51.5395L164.56 39.8161L163.956 39.3708ZM155.306 51.0942L154.67 51.4921L163.997 66.3978L164.633 66L165.269 65.6022L155.941 50.6964L155.306 51.0942ZM164.633 66V65.25H160.628V66V66.75H164.633V66ZM160.628 66L161.269 65.611L153.825 53.3389L153.184 53.7279L152.543 54.1168L159.986 66.389L160.628 66Z" fill="white"/>
</svg>
