<svg width="166" height="68" viewBox="0 0 166 68" fill="none" xmlns="http://www.w3.org/2000/svg">
<circle cx="23.1034" cy="60.0687" r="6.93103" fill="#007BFF"/>
<circle cx="23.1034" cy="23.1034" r="23.1034" fill="#007BFF"/>
<path d="M66.2184 20.5751V31H62.8714V4.37079H71.3577C73.8328 4.37079 75.7776 5.11455 77.1919 6.60208C78.6063 8.07742 79.3135 10.0466 79.3135 12.5095C79.3135 15.07 78.6368 17.0453 77.2834 18.4353C75.9422 19.813 74.0462 20.5263 71.5954 20.5751H66.2184ZM66.2184 17.7037H71.3577C72.8452 17.7037 73.9852 17.2586 74.7778 16.3686C75.5703 15.4785 75.9666 14.2043 75.9666 12.5461C75.9666 10.9488 75.5581 9.66858 74.7412 8.70535C73.9243 7.74211 72.8025 7.26049 71.3759 7.26049H66.2184V17.7037ZM93.5426 24.0501H84.5442L82.4775 31H79.0392L87.6168 4.37079H90.4883L99.0842 31H95.6458L93.5426 24.0501ZM85.4221 21.1604H92.683L89.0434 9.05284L85.4221 21.1604ZM110.753 20.2276H106.071V31H102.706V4.37079H110.168C112.777 4.37079 114.752 5.05359 116.093 6.41919C117.434 7.77259 118.105 9.76003 118.105 12.3815C118.105 14.0275 117.739 15.4663 117.008 16.6978C116.288 17.9171 115.264 18.8376 113.935 19.4595L119.093 30.7805V31H115.49L110.753 20.2276ZM106.071 17.3562H110.131C111.533 17.3562 112.649 16.905 113.478 16.0028C114.319 15.1005 114.74 13.8934 114.74 12.3815C114.74 8.96749 113.191 7.26049 110.094 7.26049H106.071V17.3562ZM128.567 18.7279L125.951 21.8919V31H122.604V4.37079H125.951V17.2282L128.146 14.3202L135.315 4.37079H139.339L130.688 16.0942L140.016 31H136.01L128.567 18.7279Z" fill="#007BFF"/>
<path d="M66.2184 20.5751V19.9051H65.5484V20.5751H66.2184ZM66.2184 31V31.67H66.8884V31H66.2184ZM62.8714 31H62.2014V31.67H62.8714V31ZM62.8714 4.37079V3.70079H62.2014V4.37079H62.8714ZM77.1919 6.60208L76.7064 7.06375L76.7083 7.06574L77.1919 6.60208ZM77.2834 18.4353L76.8033 17.9679L76.8033 17.9679L77.2834 18.4353ZM71.5954 20.5751V21.2452L71.6087 21.245L71.5954 20.5751ZM66.2184 17.7037H65.5484V18.3737H66.2184V17.7037ZM66.2184 7.26049V6.59049H65.5484V7.26049H66.2184ZM66.2184 20.5751H65.5484V31H66.2184H66.8884V20.5751H66.2184ZM66.2184 31V30.33H62.8714V31V31.67H66.2184V31ZM62.8714 31H63.5414V4.37079H62.8714H62.2014V31H62.8714ZM62.8714 4.37079V5.04079H71.3577V4.37079V3.70079H62.8714V4.37079ZM71.3577 4.37079V5.04079C73.69 5.04079 75.444 5.73611 76.7064 7.06375L77.1919 6.60208L77.6775 6.14041C76.1111 4.49299 73.9757 3.70079 71.3577 3.70079V4.37079ZM77.1919 6.60208L76.7083 7.06574C77.9793 8.39158 78.6435 10.1817 78.6435 12.5095H79.3135H79.9835C79.9835 9.9114 79.2333 7.76325 77.6756 6.13842L77.1919 6.60208ZM79.3135 12.5095H78.6435C78.6435 14.9531 77.9999 16.7389 76.8033 17.9679L77.2834 18.4353L77.7634 18.9027C79.2737 17.3516 79.9835 15.187 79.9835 12.5095H79.3135ZM77.2834 18.4353L76.8033 17.9679C75.6163 19.1872 73.9074 19.859 71.5821 19.9052L71.5954 20.5751L71.6087 21.245C74.185 21.1937 76.268 20.4388 77.7635 18.9026L77.2834 18.4353ZM71.5954 20.5751V19.9051H66.2184V20.5751V21.2451H71.5954V20.5751ZM66.2184 17.7037V18.3737H71.3577V17.7037V17.0337H66.2184V17.7037ZM71.3577 17.7037V18.3737C72.9853 18.3737 74.328 17.8811 75.2781 16.8141L74.7778 16.3686L74.2774 15.923C73.6424 16.6361 72.7051 17.0337 71.3577 17.0337V17.7037ZM74.7778 16.3686L75.2781 16.8141C76.2162 15.7606 76.6366 14.3043 76.6366 12.5461H75.9666H75.2966C75.2966 14.1043 74.9244 15.1964 74.2774 15.923L74.7778 16.3686ZM75.9666 12.5461H76.6366C76.6366 10.8333 76.1966 9.38556 75.2522 8.27199L74.7412 8.70535L74.2302 9.13871C74.9196 9.95161 75.2966 11.0644 75.2966 12.5461H75.9666ZM74.7412 8.70535L75.2522 8.27199C74.2905 7.13816 72.9708 6.59049 71.3759 6.59049V7.26049V7.93049C72.6342 7.93049 73.558 8.34607 74.2302 9.13871L74.7412 8.70535ZM71.3759 7.26049V6.59049H66.2184V7.26049V7.93049H71.3759V7.26049ZM66.2184 7.26049H65.5484V17.7037H66.2184H66.8884V7.26049H66.2184ZM93.5426 24.0501L94.1838 23.856L94.0398 23.3801H93.5426V24.0501ZM84.5442 24.0501V23.3801H84.0445L83.902 23.8591L84.5442 24.0501ZM82.4775 31V31.67H82.9773L83.1198 31.191L82.4775 31ZM79.0392 31L78.4014 30.7946L78.1194 31.67H79.0392V31ZM87.6168 4.37079V3.70079H87.1288L86.9791 4.16536L87.6168 4.37079ZM90.4883 4.37079L91.1259 4.16497L90.976 3.70079H90.4883V4.37079ZM99.0842 31V31.67H100.005L99.7218 30.7942L99.0842 31ZM95.6458 31L95.0046 31.1941L95.1486 31.67H95.6458V31ZM85.4221 21.1604L84.7802 20.9684L84.5224 21.8304H85.4221V21.1604ZM92.683 21.1604V21.8304H93.584L93.3246 20.9675L92.683 21.1604ZM89.0434 9.05284L89.685 8.85997L89.0418 6.7201L88.4015 8.86086L89.0434 9.05284ZM93.5426 24.0501V23.3801H84.5442V24.0501V24.7201H93.5426V24.0501ZM84.5442 24.0501L83.902 23.8591L81.8353 30.809L82.4775 31L83.1198 31.191L85.1864 24.241L84.5442 24.0501ZM82.4775 31V30.33H79.0392V31V31.67H82.4775V31ZM79.0392 31L79.6769 31.2054L88.2546 4.57621L87.6168 4.37079L86.9791 4.16536L78.4014 30.7946L79.0392 31ZM87.6168 4.37079V5.04079H90.4883V4.37079V3.70079H87.6168V4.37079ZM90.4883 4.37079L89.8507 4.5766L98.4466 31.2058L99.0842 31L99.7218 30.7942L91.1259 4.16497L90.4883 4.37079ZM99.0842 31V30.33H95.6458V31V31.67H99.0842V31ZM95.6458 31L96.2871 30.8059L94.1838 23.856L93.5426 24.0501L92.9013 24.2441L95.0046 31.1941L95.6458 31ZM85.4221 21.1604V21.8304H92.683V21.1604V20.4904H85.4221V21.1604ZM92.683 21.1604L93.3246 20.9675L89.685 8.85997L89.0434 9.05284L88.4018 9.24572L92.0413 21.3532L92.683 21.1604ZM89.0434 9.05284L88.4015 8.86086L84.7802 20.9684L85.4221 21.1604L86.064 21.3523L89.6853 9.24483L89.0434 9.05284ZM110.753 20.2276L111.366 19.9579L111.19 19.5576H110.753V20.2276ZM106.071 20.2276V19.5576H105.401V20.2276H106.071ZM106.071 31V31.67H106.741V31H106.071ZM102.706 31H102.036V31.67H102.706V31ZM102.706 4.37079V3.70079H102.036V4.37079H102.706ZM116.093 6.41919L115.615 6.88867L115.617 6.8908L116.093 6.41919ZM117.008 16.6978L116.432 16.3556L116.431 16.3573L117.008 16.6978ZM113.935 19.4595L113.651 18.8526L113.05 19.1337L113.325 19.7372L113.935 19.4595ZM119.093 30.7805H119.763V30.6351L119.702 30.5028L119.093 30.7805ZM119.093 31V31.67H119.763V31H119.093ZM115.49 31L114.876 31.2697L115.052 31.67H115.49V31ZM106.071 17.3562H105.401V18.0262H106.071V17.3562ZM113.478 16.0028L112.988 15.5458L112.985 15.5494L113.478 16.0028ZM106.071 7.26049V6.59049H105.401V7.26049H106.071ZM110.753 20.2276V19.5576H106.071V20.2276V20.8976H110.753V20.2276ZM106.071 20.2276H105.401V31H106.071H106.741V20.2276H106.071ZM106.071 31V30.33H102.706V31V31.67H106.071V31ZM102.706 31H103.376V4.37079H102.706H102.036V31H102.706ZM102.706 4.37079V5.04079H110.168V4.37079V3.70079H102.706V4.37079ZM110.168 4.37079V5.04079C112.664 5.04079 114.44 5.69238 115.615 6.88866L116.093 6.41919L116.571 5.94971C115.064 4.41479 112.889 3.70079 110.168 3.70079V4.37079ZM116.093 6.41919L115.617 6.8908C116.794 8.07768 117.435 9.86896 117.435 12.3815H118.105H118.775C118.775 9.6511 118.075 7.46751 116.569 5.94757L116.093 6.41919ZM118.105 12.3815H117.435C117.435 13.9254 117.093 15.2423 116.432 16.3556L117.008 16.6978L117.584 17.04C118.386 15.6903 118.775 14.1297 118.775 12.3815H118.105ZM117.008 16.6978L116.431 16.3573C115.783 17.4559 114.863 18.2858 113.651 18.8526L113.935 19.4595L114.219 20.0663C115.666 19.3895 116.794 18.3782 117.585 17.0382L117.008 16.6978ZM113.935 19.4595L113.325 19.7372L118.483 31.0583L119.093 30.7805L119.702 30.5028L114.545 19.1817L113.935 19.4595ZM119.093 30.7805H118.423V31H119.093H119.763V30.7805H119.093ZM119.093 31V30.33H115.49V31V31.67H119.093V31ZM115.49 31L116.103 30.7303L111.366 19.9579L110.753 20.2276L110.139 20.4973L114.876 31.2697L115.49 31ZM106.071 17.3562V18.0262H110.131V17.3562V16.6862H106.071V17.3562ZM110.131 17.3562V18.0262C111.691 18.0262 112.996 17.517 113.971 16.4561L113.478 16.0028L112.985 15.5494C112.301 16.2931 111.375 16.6862 110.131 16.6862V17.3562ZM113.478 16.0028L113.968 16.4597C114.95 15.4068 115.41 14.0228 115.41 12.3815H114.74H114.07C114.07 13.7641 113.689 14.7942 112.988 15.5459L113.478 16.0028ZM114.74 12.3815H115.41C115.41 10.5865 115.004 9.11517 114.075 8.09058C113.134 7.0536 111.764 6.59049 110.094 6.59049V7.26049V7.93049C111.522 7.93049 112.474 8.32089 113.082 8.99091C113.701 9.67332 114.07 10.7625 114.07 12.3815H114.74ZM110.094 7.26049V6.59049H106.071V7.26049V7.93049H110.094V7.26049ZM106.071 7.26049H105.401V17.3562H106.071H106.741V7.26049H106.071ZM128.567 18.7279L129.139 18.3804L128.651 17.5746L128.05 18.301L128.567 18.7279ZM125.951 21.8919L125.435 21.4651L125.281 21.6509V21.8919H125.951ZM125.951 31V31.67H126.621V31H125.951ZM122.604 31H121.934V31.67H122.604V31ZM122.604 4.37079V3.70079H121.934V4.37079H122.604ZM125.951 4.37079H126.621V3.70079H125.951V4.37079ZM125.951 17.2282H125.281V19.2281L126.486 17.6318L125.951 17.2282ZM128.146 14.3202L128.681 14.7238L128.685 14.7179L128.689 14.7119L128.146 14.3202ZM135.315 4.37079V3.70079H134.972L134.772 3.97909L135.315 4.37079ZM139.339 4.37079L139.878 4.7686L140.666 3.70079H139.339V4.37079ZM130.688 16.0942L130.149 15.6964L129.878 16.0632L130.12 16.4496L130.688 16.0942ZM140.016 31V31.67H141.225L140.584 30.6446L140.016 31ZM136.01 31L135.437 31.3475L135.633 31.67H136.01V31ZM128.567 18.7279L128.05 18.301L125.435 21.4651L125.951 21.8919L126.468 22.3188L129.083 19.1547L128.567 18.7279ZM125.951 21.8919H125.281V31H125.951H126.621V21.8919H125.951ZM125.951 31V30.33H122.604V31V31.67H125.951V31ZM122.604 31H123.274V4.37079H122.604H121.934V31H122.604ZM122.604 4.37079V5.04079H125.951V4.37079V3.70079H122.604V4.37079ZM125.951 4.37079H125.281V17.2282H125.951H126.621V4.37079H125.951ZM125.951 17.2282L126.486 17.6318L128.681 14.7238L128.146 14.3202L127.611 13.9165L125.416 16.8245L125.951 17.2282ZM128.146 14.3202L128.689 14.7119L135.859 4.76248L135.315 4.37079L134.772 3.97909L127.602 13.9285L128.146 14.3202ZM135.315 4.37079V5.04079H139.339V4.37079V3.70079H135.315V4.37079ZM139.339 4.37079L138.8 3.97297L130.149 15.6964L130.688 16.0942L131.227 16.492L139.878 4.7686L139.339 4.37079ZM130.688 16.0942L130.12 16.4496L139.448 31.3554L140.016 31L140.584 30.6446L131.256 15.7388L130.688 16.0942ZM140.016 31V30.33H136.01V31V31.67H140.016V31ZM136.01 31L136.583 30.6525L129.139 18.3804L128.567 18.7279L127.994 19.0754L135.437 31.3475L136.01 31Z" fill="#007BFF"/>
<path d="M32.3447 16.1723L21.2013 28.2327C20.2155 29.2996 18.5592 29.3869 17.4667 28.4296L12.7068 24.2585" stroke="white" stroke-width="3.35" stroke-linecap="round" stroke-linejoin="round"/>
<path d="M79.5695 57.5503C79.4232 60.4035 78.6185 62.586 77.1554 64.0979C75.7044 65.6098 73.6499 66.3658 70.9919 66.3658C68.3216 66.3658 66.2001 65.3538 64.6272 63.3298C63.0543 61.2936 62.2679 58.538 62.2679 55.063V50.2346C62.2679 46.7719 63.0726 44.0346 64.6821 42.0227C66.3037 40.0109 68.5106 39.005 71.3028 39.005C73.8755 39.005 75.8629 39.7792 77.2651 41.3277C78.6795 42.864 79.4476 45.0649 79.5695 47.9302H76.186C76.0397 45.7598 75.5825 44.2114 74.8143 43.2847C74.0462 42.358 72.8757 41.8947 71.3028 41.8947C69.486 41.8947 68.09 42.608 67.1145 44.0346C66.1391 45.4489 65.6514 47.5278 65.6514 50.2712V55.1544C65.6514 57.8491 66.1025 59.9158 67.0048 61.3545C67.9193 62.7933 69.2483 63.5127 70.9919 63.5127C72.7354 63.5127 73.9913 63.0798 74.7595 62.2141C75.5276 61.3484 76.0031 59.7938 76.186 57.5503H79.5695ZM101.553 66H98.188V53.6913H87.4705V66H84.1236V39.3708H87.4705V50.8199H98.188V39.3708H101.553V66ZM120.117 53.6913H110.698V63.1286H121.672V66H107.351V39.3708H121.489V42.2605H110.698V50.8199H120.117V53.6913ZM142.668 57.5503C142.521 60.4035 141.717 62.586 140.253 64.0979C138.802 65.6098 136.748 66.3658 134.09 66.3658C131.42 66.3658 129.298 65.3538 127.725 63.3298C126.152 61.2936 125.366 58.538 125.366 55.063V50.2346C125.366 46.7719 126.171 44.0346 127.78 42.0227C129.402 40.0109 131.609 39.005 134.401 39.005C136.974 39.005 138.961 39.7792 140.363 41.3277C141.778 42.864 142.546 45.0649 142.668 47.9302H139.284C139.138 45.7598 138.681 44.2114 137.912 43.2847C137.144 42.358 135.974 41.8947 134.401 41.8947C132.584 41.8947 131.188 42.608 130.213 44.0346C129.237 45.4489 128.749 47.5278 128.749 50.2712V55.1544C128.749 57.8491 129.201 59.9158 130.103 61.3545C131.017 62.7933 132.346 63.5127 134.09 63.5127C135.834 63.5127 137.089 63.0798 137.858 62.2141C138.626 61.3484 139.101 59.7938 139.284 57.5503H142.668ZM153.184 53.7279L150.569 56.8919V66H147.222V39.3708H150.569V52.2282L152.763 49.3202L159.933 39.3708H163.956L155.306 51.0942L164.633 66H160.628L153.184 53.7279Z" fill="#007BFF"/>
<path d="M79.5695 57.5503L80.3186 57.5888L80.359 56.8003H79.5695V57.5503ZM77.1554 64.0979L76.6164 63.5763L76.6142 63.5786L77.1554 64.0979ZM64.6272 63.3298L64.0336 63.7882L64.035 63.79L64.6272 63.3298ZM64.6821 42.0227L64.0981 41.5521L64.0964 41.5542L64.6821 42.0227ZM77.2651 41.3277L76.7091 41.8312L76.7133 41.8357L77.2651 41.3277ZM79.5695 47.9302V48.6802H80.3521L80.3189 47.8983L79.5695 47.9302ZM76.186 47.9302L75.4377 47.9806L75.4849 48.6802H76.186V47.9302ZM67.1145 44.0346L67.732 44.4604L67.7336 44.4579L67.1145 44.0346ZM67.0048 61.3545L66.3694 61.753L66.3718 61.7568L67.0048 61.3545ZM76.186 57.5503V56.8003H75.4947L75.4385 57.4894L76.186 57.5503ZM79.5695 57.5503L78.8205 57.5119C78.6802 60.2491 77.9144 62.2351 76.6164 63.5763L77.1554 64.0979L77.6943 64.6195C79.3226 62.9369 80.1663 60.5578 80.3186 57.5888L79.5695 57.5503ZM77.1554 64.0979L76.6142 63.5786C75.3404 64.906 73.5037 65.6158 70.9919 65.6158V66.3658V67.1158C73.7962 67.1158 76.0684 66.3137 77.6965 64.6172L77.1554 64.0979ZM70.9919 66.3658V65.6158C68.5419 65.6158 66.6434 64.702 65.2194 62.8696L64.6272 63.3298L64.035 63.79C65.7567 66.0055 68.1013 67.1158 70.9919 67.1158V66.3658ZM64.6272 63.3298L65.2207 62.8713C63.7797 61.0057 63.0179 58.4297 63.0179 55.063H62.2679H61.5179C61.5179 58.6462 62.329 61.5814 64.0336 63.7882L64.6272 63.3298ZM62.2679 55.063H63.0179V50.2346H62.2679H61.5179V55.063H62.2679ZM62.2679 50.2346H63.0179C63.0179 46.8837 63.7962 44.3307 65.2677 42.4913L64.6821 42.0227L64.0964 41.5542C62.349 43.7384 61.5179 46.66 61.5179 50.2346H62.2679ZM64.6821 42.0227L65.266 42.4934C66.7326 40.6739 68.7166 39.755 71.3028 39.755V39.005V38.255C68.3047 38.255 65.8748 39.3479 64.0981 41.5521L64.6821 42.0227ZM71.3028 39.005V39.755C73.7166 39.755 75.4812 40.475 76.7092 41.8312L77.2651 41.3277L77.821 40.8243C76.2447 39.0835 74.0344 38.255 71.3028 38.255V39.005ZM77.2651 41.3277L76.7133 41.8357C77.9695 43.2002 78.703 45.2078 78.8202 47.9621L79.5695 47.9302L80.3189 47.8983C80.1922 44.9219 79.3895 42.5279 77.8169 40.8198L77.2651 41.3277ZM79.5695 47.9302V47.1802H76.186V47.9302V48.6802H79.5695V47.9302ZM76.186 47.9302L76.9343 47.8797C76.7849 45.6631 76.3135 43.918 75.3917 42.8061L74.8143 43.2847L74.2369 43.7633C74.8514 44.5047 75.2945 45.8566 75.4377 47.9806L76.186 47.9302ZM74.8143 43.2847L75.3917 42.8061C74.44 41.658 73.0254 41.1447 71.3028 41.1447V41.8947V42.6447C72.7259 42.6447 73.6523 43.0581 74.2369 43.7633L74.8143 43.2847ZM71.3028 41.8947V41.1447C69.2535 41.1447 67.6189 41.9681 66.4954 43.6112L67.1145 44.0346L67.7336 44.4579C68.561 43.2479 69.7186 42.6447 71.3028 42.6447V41.8947ZM67.1145 44.0346L66.4971 43.6088C65.3978 45.2028 64.9014 47.4591 64.9014 50.2712H65.6514H66.4014C66.4014 47.5966 66.8804 45.695 67.7319 44.4604L67.1145 44.0346ZM65.6514 50.2712H64.9014V55.1544H65.6514H66.4014V50.2712H65.6514ZM65.6514 55.1544H64.9014C64.9014 57.9146 65.3603 60.1439 66.3694 61.753L67.0048 61.3545L67.6402 60.9561C66.8447 59.6876 66.4014 57.7835 66.4014 55.1544H65.6514ZM67.0048 61.3545L66.3718 61.7568C67.4277 63.418 68.9988 64.2627 70.9919 64.2627V63.5127V62.7627C69.4978 62.7627 68.4108 62.1685 67.6378 60.9522L67.0048 61.3545ZM70.9919 63.5127V64.2627C72.8407 64.2627 74.3508 63.8047 75.3205 62.7119L74.7595 62.2141L74.1985 61.7163C73.6319 62.3549 72.6302 62.7627 70.9919 62.7627V63.5127ZM74.7595 62.2141L75.3205 62.7119C76.2591 61.6541 76.748 59.8869 76.9335 57.6113L76.186 57.5503L75.4385 57.4894C75.2582 59.7007 74.7962 61.0428 74.1985 61.7163L74.7595 62.2141ZM76.186 57.5503V58.3003H79.5695V57.5503V56.8003H76.186V57.5503ZM101.553 66V66.75H102.303V66H101.553ZM98.188 66H97.438V66.75H98.188V66ZM98.188 53.6913H98.938V52.9413H98.188V53.6913ZM87.4705 53.6913V52.9413H86.7205V53.6913H87.4705ZM87.4705 66V66.75H88.2205V66H87.4705ZM84.1236 66H83.3736V66.75H84.1236V66ZM84.1236 39.3708V38.6208H83.3736V39.3708H84.1236ZM87.4705 39.3708H88.2205V38.6208H87.4705V39.3708ZM87.4705 50.8199H86.7205V51.5699H87.4705V50.8199ZM98.188 50.8199V51.5699H98.938V50.8199H98.188ZM98.188 39.3708V38.6208H97.438V39.3708H98.188ZM101.553 39.3708H102.303V38.6208H101.553V39.3708ZM101.553 66V65.25H98.188V66V66.75H101.553V66ZM98.188 66H98.938V53.6913H98.188H97.438V66H98.188ZM98.188 53.6913V52.9413H87.4705V53.6913V54.4413H98.188V53.6913ZM87.4705 53.6913H86.7205V66H87.4705H88.2205V53.6913H87.4705ZM87.4705 66V65.25H84.1236V66V66.75H87.4705V66ZM84.1236 66H84.8736V39.3708H84.1236H83.3736V66H84.1236ZM84.1236 39.3708V40.1208H87.4705V39.3708V38.6208H84.1236V39.3708ZM87.4705 39.3708H86.7205V50.8199H87.4705H88.2205V39.3708H87.4705ZM87.4705 50.8199V51.5699H98.188V50.8199V50.0699H87.4705V50.8199ZM98.188 50.8199H98.938V39.3708H98.188H97.438V50.8199H98.188ZM98.188 39.3708V40.1208H101.553V39.3708V38.6208H98.188V39.3708ZM101.553 39.3708H100.803V66H101.553H102.303V39.3708H101.553ZM120.117 53.6913V54.4413H120.867V53.6913H120.117ZM110.698 53.6913V52.9413H109.948V53.6913H110.698ZM110.698 63.1286H109.948V63.8786H110.698V63.1286ZM121.672 63.1286H122.422V62.3786H121.672V63.1286ZM121.672 66V66.75H122.422V66H121.672ZM107.351 66H106.601V66.75H107.351V66ZM107.351 39.3708V38.6208H106.601V39.3708H107.351ZM121.489 39.3708H122.239V38.6208H121.489V39.3708ZM121.489 42.2605V43.0105H122.239V42.2605H121.489ZM110.698 42.2605V41.5105H109.948V42.2605H110.698ZM110.698 50.8199H109.948V51.5699H110.698V50.8199ZM120.117 50.8199H120.867V50.0699H120.117V50.8199ZM120.117 53.6913V52.9413H110.698V53.6913V54.4413H120.117V53.6913ZM110.698 53.6913H109.948V63.1286H110.698H111.448V53.6913H110.698ZM110.698 63.1286V63.8786H121.672V63.1286V62.3786H110.698V63.1286ZM121.672 63.1286H120.922V66H121.672H122.422V63.1286H121.672ZM121.672 66V65.25H107.351V66V66.75H121.672V66ZM107.351 66H108.101V39.3708H107.351H106.601V66H107.351ZM107.351 39.3708V40.1208H121.489V39.3708V38.6208H107.351V39.3708ZM121.489 39.3708H120.739V42.2605H121.489H122.239V39.3708H121.489ZM121.489 42.2605V41.5105H110.698V42.2605V43.0105H121.489V42.2605ZM110.698 42.2605H109.948V50.8199H110.698H111.448V42.2605H110.698ZM110.698 50.8199V51.5699H120.117V50.8199V50.0699H110.698V50.8199ZM120.117 50.8199H119.367V53.6913H120.117H120.867V50.8199H120.117ZM142.668 57.5503L143.417 57.5888L143.457 56.8003H142.668V57.5503ZM140.253 64.0979L139.714 63.5763L139.712 63.5786L140.253 64.0979ZM127.725 63.3298L127.132 63.7882L127.133 63.79L127.725 63.3298ZM127.78 42.0227L127.196 41.5521L127.194 41.5542L127.78 42.0227ZM140.363 41.3277L139.807 41.8312L139.811 41.8357L140.363 41.3277ZM142.668 47.9302V48.6802H143.45L143.417 47.8983L142.668 47.9302ZM139.284 47.9302L138.536 47.9806L138.583 48.6802H139.284V47.9302ZM130.213 44.0346L130.83 44.4604L130.832 44.4579L130.213 44.0346ZM130.103 61.3545L129.467 61.753L129.47 61.7568L130.103 61.3545ZM139.284 57.5503V56.8003H138.593L138.537 57.4894L139.284 57.5503ZM142.668 57.5503L141.919 57.5119C141.778 60.2491 141.012 62.2351 139.714 63.5763L140.253 64.0979L140.792 64.6195C142.421 62.9369 143.264 60.5578 143.417 57.5888L142.668 57.5503ZM140.253 64.0979L139.712 63.5786C138.438 64.906 136.602 65.6158 134.09 65.6158V66.3658V67.1158C136.894 67.1158 139.166 66.3137 140.795 64.6172L140.253 64.0979ZM134.09 66.3658V65.6158C131.64 65.6158 129.742 64.702 128.317 62.8696L127.725 63.3298L127.133 63.79C128.855 66.0055 131.199 67.1158 134.09 67.1158V66.3658ZM127.725 63.3298L128.319 62.8713C126.878 61.0057 126.116 58.4297 126.116 55.063H125.366H124.616C124.616 58.6462 125.427 61.5814 127.132 63.7882L127.725 63.3298ZM125.366 55.063H126.116V50.2346H125.366H124.616V55.063H125.366ZM125.366 50.2346H126.116C126.116 46.8837 126.894 44.3307 128.366 42.4913L127.78 42.0227L127.194 41.5542C125.447 43.7384 124.616 46.66 124.616 50.2346H125.366ZM127.78 42.0227L128.364 42.4934C129.831 40.6739 131.815 39.755 134.401 39.755V39.005V38.255C131.403 38.255 128.973 39.3479 127.196 41.5521L127.78 42.0227ZM134.401 39.005V39.755C136.815 39.755 138.579 40.475 139.807 41.8312L140.363 41.3277L140.919 40.8243C139.343 39.0835 137.132 38.255 134.401 38.255V39.005ZM140.363 41.3277L139.811 41.8357C141.068 43.2002 141.801 45.2078 141.918 47.9621L142.668 47.9302L143.417 47.8983C143.29 44.9219 142.488 42.5279 140.915 40.8198L140.363 41.3277ZM142.668 47.9302V47.1802H139.284V47.9302V48.6802H142.668V47.9302ZM139.284 47.9302L140.032 47.8797C139.883 45.6631 139.412 43.918 138.49 42.8061L137.912 43.2847L137.335 43.7633C137.95 44.5047 138.393 45.8566 138.536 47.9806L139.284 47.9302ZM137.912 43.2847L138.49 42.8061C137.538 41.658 136.123 41.1447 134.401 41.1447V41.8947V42.6447C135.824 42.6447 136.75 43.0581 137.335 43.7633L137.912 43.2847ZM134.401 41.8947V41.1447C132.352 41.1447 130.717 41.9681 129.593 43.6112L130.213 44.0346L130.832 44.4579C131.659 43.2479 132.817 42.6447 134.401 42.6447V41.8947ZM130.213 44.0346L129.595 43.6088C128.496 45.2028 127.999 47.4591 127.999 50.2712H128.749H129.499C129.499 47.5966 129.979 45.695 130.83 44.4604L130.213 44.0346ZM128.749 50.2712H127.999V55.1544H128.749H129.499V50.2712H128.749ZM128.749 55.1544H127.999C127.999 57.9146 128.458 60.1439 129.467 61.753L130.103 61.3545L130.738 60.9561C129.943 59.6876 129.499 57.7835 129.499 55.1544H128.749ZM130.103 61.3545L129.47 61.7568C130.526 63.418 132.097 64.2627 134.09 64.2627V63.5127V62.7627C132.596 62.7627 131.509 62.1685 130.736 60.9522L130.103 61.3545ZM134.09 63.5127V64.2627C135.939 64.2627 137.449 63.8047 138.419 62.7119L137.858 62.2141L137.297 61.7163C136.73 62.3549 135.728 62.7627 134.09 62.7627V63.5127ZM137.858 62.2141L138.419 62.7119C139.357 61.6541 139.846 59.8869 140.032 57.6113L139.284 57.5503L138.537 57.4894C138.356 59.7007 137.894 61.0428 137.297 61.7163L137.858 62.2141ZM139.284 57.5503V58.3003H142.668V57.5503V56.8003H139.284V57.5503ZM153.184 53.7279L153.825 53.3389L153.278 52.4369L152.606 53.25L153.184 53.7279ZM150.569 56.8919L149.991 56.4141L149.819 56.6221V56.8919H150.569ZM150.569 66V66.75H151.319V66H150.569ZM147.222 66H146.472V66.75H147.222V66ZM147.222 39.3708V38.6208H146.472V39.3708H147.222ZM150.569 39.3708H151.319V38.6208H150.569V39.3708ZM150.569 52.2282H149.819V54.4669L151.167 52.68L150.569 52.2282ZM152.763 49.3202L153.362 49.772L153.367 49.7654L153.372 49.7586L152.763 49.3202ZM159.933 39.3708V38.6208H159.549L159.324 38.9323L159.933 39.3708ZM163.956 39.3708L164.56 39.8161L165.442 38.6208H163.956V39.3708ZM155.306 51.0942L154.702 50.6489L154.399 51.0595L154.67 51.4921L155.306 51.0942ZM164.633 66V66.75H165.987L165.269 65.6022L164.633 66ZM160.628 66L159.986 66.389L160.205 66.75H160.628V66ZM153.184 53.7279L152.606 53.25L149.991 56.4141L150.569 56.8919L151.147 57.3698L153.762 54.2057L153.184 53.7279ZM150.569 56.8919H149.819V66H150.569H151.319V56.8919H150.569ZM150.569 66V65.25H147.222V66V66.75H150.569V66ZM147.222 66H147.972V39.3708H147.222H146.472V66H147.222ZM147.222 39.3708V40.1208H150.569V39.3708V38.6208H147.222V39.3708ZM150.569 39.3708H149.819V52.2282H150.569H151.319V39.3708H150.569ZM150.569 52.2282L151.167 52.68L153.362 49.772L152.763 49.3202L152.165 48.8684L149.97 51.7764L150.569 52.2282ZM152.763 49.3202L153.372 49.7586L160.541 39.8092L159.933 39.3708L159.324 38.9323L152.155 48.8817L152.763 49.3202ZM159.933 39.3708V40.1208H163.956V39.3708V38.6208H159.933V39.3708ZM163.956 39.3708L163.353 38.9255L154.702 50.6489L155.306 51.0942L155.909 51.5395L164.56 39.8161L163.956 39.3708ZM155.306 51.0942L154.67 51.4921L163.997 66.3978L164.633 66L165.269 65.6022L155.941 50.6964L155.306 51.0942ZM164.633 66V65.25H160.628V66V66.75H164.633V66ZM160.628 66L161.269 65.611L153.825 53.3389L153.184 53.7279L152.543 54.1168L159.986 66.389L160.628 66Z" fill="#007BFF"/>
</svg>
